<svg xmlns="http://www.w3.org/2000/svg" width="50" height="44.443" viewBox="0 0 50 44.443">
  <path id="hand-holding-usd-solid" d="M23.529,12.526l4.711,1.241a.746.746,0,0,1,.576.7.765.765,0,0,1-.792.729h-3.09a2.6,2.6,0,0,1-.971-.191,1.244,1.244,0,0,0-1.328.174L20.985,16.7a1.014,1.014,0,0,0-.2.231.991.991,0,0,0,.337,1.366,7.272,7.272,0,0,0,3,1v1.536a1.457,1.457,0,0,0,1.508,1.389h1.508a1.457,1.457,0,0,0,1.509-1.389V19.305a4.984,4.984,0,0,0,4.644-5.469A5.264,5.264,0,0,0,29.249,9.7L24.538,8.455a.746.746,0,0,1-.576-.7.765.765,0,0,1,.792-.729h3.09a2.6,2.6,0,0,1,.975.191,1.244,1.244,0,0,0,1.328-.174L31.8,5.521a.982.982,0,0,0,.188-.226.992.992,0,0,0-.333-1.37,7.276,7.276,0,0,0-3-1V1.389A1.456,1.456,0,0,0,27.147,0H25.639a1.456,1.456,0,0,0-1.508,1.389V2.917a4.987,4.987,0,0,0-4.645,5.469A5.269,5.269,0,0,0,23.529,12.526ZM49.068,28.48a2.873,2.873,0,0,0-3.7,0L37.349,34.9a5.524,5.524,0,0,1-3.472,1.215H23.611a1.389,1.389,0,1,1,0-2.778h6.8a2.881,2.881,0,0,0,2.886-2.309,2.709,2.709,0,0,0,.04-.474,2.778,2.778,0,0,0-2.778-2.773H16.666a10.213,10.213,0,0,0-6.432,2.282L6.2,33.333H1.389A1.389,1.389,0,0,0,0,34.721v8.333a1.389,1.389,0,0,0,1.389,1.389H32.358a5.555,5.555,0,0,0,3.472-1.215l13.127-10.5a2.778,2.778,0,0,0,.111-4.245Z" fill="#5f3df2"/>
</svg>
