<svg xmlns="http://www.w3.org/2000/svg" width="19.06" height="19.06" viewBox="0 0 19.06 19.06">
  <g id="alter" transform="translate(0 0)">
    <path id="Path_12689" data-name="Path 12689" d="M0,11.727A9.865,9.865,0,0,1,9.865,1.862h2.048V.559a.558.558,0,0,1,.932-.415l3.723,3.35a.558.558,0,0,1,0,.83l-3.723,3.35a.558.558,0,0,1-.932-.415v-1.3h-1.9A9.661,9.661,0,0,0,1.075,11.94.558.558,0,0,1,0,11.727Z" transform="translate(0 0)" fill="#a8adb2"/>
    <g id="Group_4750" data-name="Group 4750" transform="translate(2.308 6.773)">
      <path id="Path_12690" data-name="Path 12690" d="M78.752,182.511a9.865,9.865,0,0,1-9.865,9.865H66.84v1.3a.558.558,0,0,1-.932.415l-3.723-3.35a.558.558,0,0,1,0-.83l3.723-3.35a.558.558,0,0,1,.932.415v1.3h1.9a9.661,9.661,0,0,0,8.933-5.983A.558.558,0,0,1,78.752,182.511Z" transform="translate(-62 -181.952)" fill="#a8adb2"/>
    </g>
  </g>
</svg>
