<svg xmlns="http://www.w3.org/2000/svg" width="16.12" height="19.434" viewBox="0 0 16.12 19.434">
  <g id="money_4_" data-name="money (4)" transform="translate(-36.238 0)">
    <g id="Group_4749" data-name="Group 4749" transform="translate(36.238 0)">
      <g id="Group_4742" data-name="Group 4742" transform="translate(8.466 12.489)">
        <path id="Path_12682" data-name="Path 12682" d="M222.276,273.529a.924.924,0,0,0-.259-.188,3.13,3.13,0,0,0-.657-.232v1.738a1.235,1.235,0,0,0,.973-.513h0a.794.794,0,0,0,.072-.543A.546.546,0,0,0,222.276,273.529Z" transform="translate(-221.36 -273.108)" fill="#fff"/>
      </g>
      <g id="Group_4743" data-name="Group 4743" transform="translate(9.437 13.714)">
        <path id="Path_12683" data-name="Path 12683" d="M242.6,299.9l0,0h0Z" transform="translate(-242.604 -299.9)" fill="#fff"/>
      </g>
      <g id="Group_4744" data-name="Group 4744" transform="translate(6.64 9.7)">
        <path id="Path_12684" data-name="Path 12684" d="M181.559,212.537a.652.652,0,0,0-.113.306.733.733,0,0,0,.037.338.542.542,0,0,0,.21.231,1.645,1.645,0,0,0,.313.161c.091.037.194.072.3.106v-1.573A1.2,1.2,0,0,0,181.559,212.537Z" transform="translate(-181.441 -212.106)" fill="#fff"/>
      </g>
      <g id="Group_4745" data-name="Group 4745" transform="translate(9.439 13.702)">
        <path id="Path_12685" data-name="Path 12685" d="M242.654,299.619l-.007.013h0Z" transform="translate(-242.647 -299.619)" fill="#fff"/>
      </g>
      <g id="Group_4746" data-name="Group 4746" transform="translate(9.455 13.684)">
        <path id="Path_12686" data-name="Path 12686" d="M243,299.245Z" transform="translate(-243.004 -299.244)" fill="#fff"/>
      </g>
      <g id="Group_4747" data-name="Group 4747" transform="translate(0 0)">
        <path id="Path_12687" data-name="Path 12687" d="M45.316,4.229C46.795,2.987,47.782.189,47.175.067c-.808-.163-2.562.551-3.41.676-1.2.145-2.512-1.3-3.247-.5-.6.657.429,3.045,2.034,4.086-4.79,2.354-11.523,14.173.223,15.031C59.027,20.55,50.889,6.523,45.316,4.229Zm1.4,9.321a1.709,1.709,0,0,1-.659,1.16,2.519,2.519,0,0,1-1.349.477V15.7a.478.478,0,1,1-.956,0v-.556c-.082-.016-.164-.034-.245-.056a2.347,2.347,0,0,1-1.169-.719,2.108,2.108,0,0,1-.36-.6c-.022-.057-.042-.115-.06-.173a.887.887,0,0,1-.038-.162.478.478,0,0,1,.929-.2c.018.055.031.112.051.166a1.065,1.065,0,0,0,.073.157,1.219,1.219,0,0,0,.21.269,1.423,1.423,0,0,0,.608.331V12.266a3.4,3.4,0,0,1-1.254-.542,1.458,1.458,0,0,1-.423-.508,1.591,1.591,0,0,1-.148-.684,1.631,1.631,0,0,1,.143-.693,1.689,1.689,0,0,1,.392-.538,2.394,2.394,0,0,1,1.289-.571V8.2a.478.478,0,1,1,.956,0v.526q.094.012.187.029a2.361,2.361,0,0,1,1.248.606,1.824,1.824,0,0,1,.382.549,1.753,1.753,0,0,1,.068.175,1.063,1.063,0,0,1,.045.17.478.478,0,0,1-.919.242c-.02-.052-.03-.108-.05-.16a.842.842,0,0,0-.078-.151.912.912,0,0,0-.226-.237,1.55,1.55,0,0,0-.656-.256V11.5a6.07,6.07,0,0,1,.817.242,1.909,1.909,0,0,1,1,.78c-.034-.059-.067-.117,0,0s.035.061,0,0A1.705,1.705,0,0,1,46.712,13.55Z" transform="translate(-36.238 0)" fill="#fff"/>
      </g>
      <g id="Group_4748" data-name="Group 4748" transform="translate(9.425 13.727)">
        <path id="Path_12688" data-name="Path 12688" d="M242.344,300.169l-.007.013Z" transform="translate(-242.337 -300.169)" fill="#fff"/>
      </g>
    </g>
  </g>
</svg>
