<svg xmlns="http://www.w3.org/2000/svg" width="50" height="50" viewBox="0 0 50 50">
  <path id="spinner-solid_1_" data-name="spinner-solid (1)" d="M29.688,4.688A4.688,4.688,0,1,1,25,0,4.687,4.687,0,0,1,29.688,4.688ZM25,40.625a4.688,4.688,0,1,0,4.688,4.688A4.687,4.687,0,0,0,25,40.625ZM45.313,20.313A4.688,4.688,0,1,0,50,25,4.687,4.687,0,0,0,45.313,20.313ZM9.375,25a4.688,4.688,0,1,0-4.687,4.688A4.687,4.687,0,0,0,9.375,25Zm1.262,9.676a4.688,4.688,0,1,0,4.688,4.688A4.687,4.687,0,0,0,10.637,34.676Zm28.726,0a4.688,4.688,0,1,0,4.688,4.688A4.687,4.687,0,0,0,39.363,34.676ZM10.637,5.949a4.687,4.687,0,1,0,4.688,4.687,4.687,4.687,0,0,0-4.687-4.687Z" fill="#5f3df2"/>
</svg>
