<svg xmlns="http://www.w3.org/2000/svg" width="50" height="46.667" viewBox="0 0 50 46.667">
  <path id="university-solid_1_" data-name="university-solid (1)" d="M66,42v1.667a.833.833,0,0,1-.833.833h-2.5v1.25A1.25,1.25,0,0,1,61.417,47H20.583a1.25,1.25,0,0,1-1.25-1.25V44.5h-2.5A.833.833,0,0,1,16,43.666V42a.833.833,0,0,1,.515-.77l24.167-9.167a.833.833,0,0,1,.637,0L65.485,41.23A.833.833,0,0,1,66,42ZM63.5,73.666h-45a2.5,2.5,0,0,0-2.5,2.5v1.667a.833.833,0,0,0,.833.833H65.167A.833.833,0,0,0,66,77.833V76.166A2.5,2.5,0,0,0,63.5,73.666Zm-39.167-25v20h-3.75a1.25,1.25,0,0,0-1.25,1.25V72H62.667V69.916a1.25,1.25,0,0,0-1.25-1.25h-3.75v-20H51v20H44.333v-20H37.667v20H31v-20Z" transform="translate(-16 -32)" fill="#5f3df2"/>
</svg>
